# xmcd
#
# Track frame offsets: 
#        150
#        13831
#        26013
#        38365
#        49828
#        61238
#        72408
#        83546
#        96665
#        108655
#        121203
#        131199
#        142850
#        155663
#        167545
#        178768
#        191166
#        203998
#        217368
#        229058
#        243014
#        253652
#        267476
#        279699
#        290906
#
# Disc length: 4035 seconds
#
# Revision: 4
# Processed by: cddbd v1.5.2PL0 Copyright (c) Steve Scherf et al.
# Submitted via: ExactAudioCopyFreeDBPlugin 1.0
#
DISCID=830fc119
DTITLE=Various Artist - Rhythm 'n' Blues:  Fine Brown Sugar [Membran 
DTITLE=Music] [box set]
DYEAR=2005
DGENRE=Rhythm and Blues
TTITLE0=Faye Adams - Anything for a Friend
TTITLE1=Dinah Washington - A Slick Chick
TTITLE2=Margie Day - Stubborn as a Mule
TTITLE3=Alma Mondy - Baby, Get Wise
TTITLE4=Annie Laurie - Stop Talkin' and Start Walkin'
TTITLE5=Lula Reed - I'll Upset You, Baby
TTITLE6=Annisteen Allen - Baby, I'm Doing It
TTITLE7=Ruth Brown - Shine On
TTITLE8=Laverne Baker - Pig Latin Blues
TTITLE9=Julia Lee - Gotta Gimme What'cha Got
TTITLE10=Little Sylvia Vanderpool - A Little Boy
TTITLE11=Mitzi Mars - I'm Glad
TTITLE12=Mabel Scott - Catch'em Young, Treat'em Rough, Tell'em Nothing
TTITLE13=Little Esther - Better Beware
TTITLE14=Marie Adams - I'm Gonna Latch On
TTITLE15=Big Maybelle - Jinny Mule
TTITLE16=Ella Johnson - Aint'cha Got Me Where You Want Me
TTITLE17=Ruth Brown - (Mama) He Treats Your Daughter Mean
TTITLE18=Big Mama Thornton - Rock a Bye, Baby
TTITLE19=Mabel Scott - Boogie Woogie Choo Choo Train
TTITLE20=Little Esther - Sit Back Down
TTITLE21=Big Maybelle - Rain Down Rain
TTITLE22=Terry Timmons - He's the Best in the Business
TTITLE23=Annisteen Allen - My Baby Keeps Rollin'
TTITLE24=Mabel Scott - That Ain't The Way to Love
EXTD=YEAR: 2005
EXTT0=
EXTT1=
EXTT2=
EXTT3=
EXTT4=
EXTT5=
EXTT6=
EXTT7=
EXTT8=
EXTT9=
EXTT10=
EXTT11=
EXTT12=
EXTT13=
EXTT14=
EXTT15=
EXTT16=
EXTT17=
EXTT18=
EXTT19=
EXTT20=
EXTT21=
EXTT22=
EXTT23=
EXTT24=
PLAYORDER=
